<?xml version="1.0" encoding="utf-8"?>
<!-- Generator: Adobe Illustrator 22.1.0, SVG Export Plug-In . SVG Version: 6.00 Build 0)  -->
<svg version="1.1" id="Layer_1" xmlns="http://www.w3.org/2000/svg" xmlns:xlink="http://www.w3.org/1999/xlink" x="0px" y="0px"
	 viewBox="0 0 1000 1000" style="enable-background:new 0 0 1000 1000;" xml:space="preserve">
<path d="M66.3,91v95.3c0,2.8-1.8,4.9-4.2,4.9c-2.3,0-4.2-2.1-4.2-4.9V91c0-2.6,2-4.9,4.2-4.9C64.5,86,66.3,88.3,66.3,91z M77.1,69.5
	c-0.5,0.5-0.8,1.2-0.9,1.9l-2.4,9.8c-0.2,0.4-0.2,0.5-0.2,0.9c0,0.9,0.3,1.6,0.8,2.1c0.5,0.7,1.2,1.1,1.8,1.1c0.8,0,1.5-0.4,2-1.1
	l0.2-0.2l5.1-8.3c0.2,0,0.2-0.2,0.2-0.2l0.2-0.2c0.3-0.7,0.6-1.6,0.6-2.5c0-1.2-0.5-2.6-1.2-3.5C81.5,67.8,78.8,67.8,77.1,69.5z
	 M142.2,86.2c-2.3-0.7-4.7,0.9-5.3,3.5l-18.2,77.7l-18.4-77.7c-0.6-2.6-2.9-4.2-5.1-3.5c-2.3,0.7-3.6,3.5-3,6.2l22.3,94.9
	c0.2,0.2,0.2,0.2,0.2,0.2c0.3,1.6,1.4,2.8,2.9,3.3c0.5,0.2,0.8,0.2,1.2,0.2c1.8,0,3.5-1.4,4.1-3.7l22.3-94.9
	C145.7,89.7,144.3,86.9,142.2,86.2z M157.4,190.8H196c2.4,0,4.4-2.1,4.4-4.9c0-2.6-2-4.9-4.4-4.9h-34.3v-37.6h18.2
	c2.3,0,4.2-2.1,4.2-4.9c0-2.6-2-4.9-4.2-4.9h-18.2V95.9H196c2.4,0,4.4-2.1,4.4-4.9c0-2.6-2-4.9-4.4-4.9h-38.6
	c-2.3,0-4.2,2.3-4.2,4.9v94.9C153.2,188.7,155.1,190.8,157.4,190.8z M271.7,190.8c7.1,0,13.4-5.1,18.2-13.7v8.8
	c0,2.8,1.8,4.9,4.2,4.9c2.3,0,4.2-2.1,4.2-4.9v-47.5c0-2.6-2-4.9-4.2-4.9h-22.4c-2.4,0-4.2,2.3-4.2,4.9c0,2.8,1.8,4.9,4.2,4.9h18.1
	c-1.1,18.8-8.3,37.6-18.1,37.6c-10.7,0-18.2-22.3-18.2-42.5c0-20,7.5-42.5,18.2-42.5c6.8,0,12.4,6.3,15.4,17.8
	c0.8,2.5,3.2,3.9,5.4,3.2c2.1-0.9,3.3-3.7,2.7-6.3C290.8,95,282.4,86,271.7,86c-14.9,0-26.7,23-26.7,52.4
	C245.1,167.8,256.8,190.8,271.7,190.8z M360.1,138.6c0,29.4-11.6,52.4-26.7,52.4c-14.9,0-26.7-23-26.7-52.4
	c0-29.5,11.7-52.6,26.7-52.6C348.5,86,360.1,109.1,360.1,138.6z M351.7,138.6c0-20.2-7.5-42.7-18.2-42.7s-18.2,22.5-18.2,42.7
	c0,20,7.5,42.5,18.2,42.5S351.7,158.6,351.7,138.6z M364.8,95.9h17.5v90c0,2.8,2,4.9,4.2,4.9c2.4,0,4.2-2.1,4.2-4.9v-90h17.6
	c2.3,0,4.2-2.1,4.2-4.9c0-2.6-2-4.9-4.2-4.9h-43.5c-2.3,0-4.2,2.3-4.2,4.9C360.6,93.8,362.5,95.9,364.8,95.9z M502.5,187.3
	l-10.4-43.9h-15.8l-10.4,43.9c-0.5,2.1-2.3,3.5-4.1,3.5c-0.3,0-0.8,0-1.1-0.2c-2.3-0.7-3.6-3.3-3-6L480,89.7c0.6-2.6,3-4.2,5.3-3.5
	c1.5,0.5,2.6,1.9,2.9,3.5l22.4,94.9c0.6,2.6-0.8,5.3-3,6c-0.3,0.2-0.8,0.2-1.1,0.2C504.6,190.8,502.9,189.4,502.5,187.3z
	 M489.8,133.5l-5.7-23.9l-5.6,23.9H489.8z M605.5,133.5H583c-2.4,0-4.2,2.3-4.2,4.9c0,2.8,1.8,4.9,4.2,4.9h18.1
	C600,162.1,592.8,181,583,181c-10.7,0-18.2-22.3-18.2-42.5c0-20,7.5-42.5,18.2-42.5c6.8,0,12.4,6.3,15.4,17.8
	c0.8,2.5,3.2,3.9,5.4,3.2c2.1-0.9,3.3-3.7,2.7-6.3C602.2,95,593.7,86,583,86c-14.9,0-26.7,23-26.7,52.4s11.7,52.4,26.7,52.4
	c7.1,0,13.4-5.1,18.2-13.7v8.8c0,2.8,1.8,4.9,4.2,4.9c2.3,0,4.2-2.1,4.2-4.9v-47.5C609.7,135.8,607.7,133.5,605.5,133.5z
	 M671.4,138.6c0,29.4-11.6,52.4-26.7,52.4c-14.9,0-26.7-23-26.7-52.4c0-29.5,11.7-52.6,26.7-52.6C659.8,86,671.4,109.1,671.4,138.6z
	 M663,138.6c0-20.2-7.5-42.7-18.2-42.7s-18.2,22.5-18.2,42.7c0,20,7.5,42.5,18.2,42.5S663,158.6,663,138.6z M732.9,138.6
	c0,29.4-11.6,52.4-26.7,52.4c-14.9,0-26.7-23-26.7-52.4c0-29.5,11.7-52.6,26.7-52.6C721.3,86,732.9,109.1,732.9,138.6z M724.4,138.6
	c0-20.2-7.5-42.7-18.2-42.7S688,118.4,688,138.6c0,20,7.5,42.5,18.2,42.5S724.4,158.6,724.4,138.6z M788.2,138.4
	c0,52.4-32.4,52.4-42.9,52.4c-2.3,0-4.2-2.1-4.2-4.9V91c0-2.6,2-4.9,4.2-4.9c7.4,0,16.9,0.9,25.6,7.2
	C782.3,101.7,788.2,116.8,788.2,138.4z M779.6,138.4c0-34.5-16.1-41.3-30.1-42.4v85C765,179.9,779.6,172.9,779.6,138.4z
	 M172.5,659.4c7.1,4.6,11.7,12.2,11.7,20.9c0,13.9-11.8,25.2-26.4,25.2h-21.9c-2.4,0-4.5-1.9-4.5-4.3v-83.5c0-2.3,2.1-4.3,4.5-4.3
	h21.9c14.6,0,26.4,11.3,26.4,25.2C184.2,647.2,179.6,654.9,172.5,659.4z M157.7,663.7h-17.4v33.1h17.4c9.6,0,17.4-7.4,17.4-16.6
	S167.3,663.7,157.7,663.7z M175.1,638.5c0-9.1-7.8-16.6-17.4-16.6h-17.4V655h17.4C167.3,655.1,175.1,647.7,175.1,638.5z
	 M240.6,613.3c-2.6,0-4.5,2-4.5,4.3v62.7c0,9.1-7.8,16.6-17.4,16.6c-9.6,0-17.4-7.4-17.4-16.6v-62.7c0-2.3-2.1-4.3-4.5-4.3
	s-4.5,2-4.5,4.3v62.7c0,13.9,11.8,25.2,26.4,25.2s26.4-11.3,26.4-25.2v-62.7C245.2,615.3,243.1,613.3,240.6,613.3z M304.7,613.3
	h-46.9c-2.4,0-4.5,2-4.5,4.3c0,2.5,2.1,4.3,4.5,4.3h18.8v79.2c0,2.5,2.1,4.3,4.5,4.3c2.6,0,4.5-1.9,4.5-4.3V622h19
	c2.4,0,4.5-1.9,4.5-4.3C309.3,615.3,307.2,613.3,304.7,613.3z M409.2,613.3h-46.9c-2.4,0-4.5,2-4.5,4.3c0,2.5,2.1,4.3,4.5,4.3h18.8
	v79.2c0,2.5,2.1,4.3,4.5,4.3c2.6,0,4.5-1.9,4.5-4.3V622h19c2.4,0,4.5-1.9,4.5-4.3C413.8,615.3,411.6,613.3,409.2,613.3z
	 M467.9,613.3c-2.4,0-4.5,2-4.5,4.3v37.6h-32.6v-37.6c0-2.3-1.9-4.3-4.5-4.3c-2.4,0-4.5,2-4.5,4.3v83.8c0,2.5,2.1,4.3,4.5,4.3
	c2.6,0,4.5-1.9,4.5-4.3v-37.6h32.6v37.6c0,2.5,2.1,4.3,4.5,4.3c2.6,0,4.7-1.9,4.7-4.3v-83.8C472.7,615.3,470.5,613.3,467.9,613.3z
	 M485,613.3c-2.4,0-4.5,2-4.5,4.3v83.8c0,2.5,2.1,4.3,4.5,4.3c2.6,0,4.5-1.9,4.5-4.3v-83.8C489.5,615.3,487.6,613.3,485,613.3z
	 M523.9,622c9.6,0,17.4,7.4,17.4,16.6c0,2.5,1.9,4.3,4.5,4.3c2.4,0,4.5-1.9,4.5-4.3c0-13.9-11.8-25.2-26.4-25.2
	s-26.4,11.3-26.4,25.2c0,13.1,12.8,19.2,24.2,24.4c11.8,5.6,19.6,9.7,19.6,17.3c0,9.1-7.8,16.6-17.4,16.6s-17.4-7.4-17.4-16.6
	c0-2.3-2.1-4.3-4.5-4.3s-4.5,2-4.5,4.3c0,13.9,11.8,25.2,26.4,25.2c14.6,0,26.4-11.3,26.4-25.2c0-13.5-13.1-19.6-24.7-25.1
	c-11.8-5.6-19.1-9.4-19.1-16.7C506.6,629.4,514.4,622,523.9,622z"/>
<path d="M256.1,462.3c4.9,10.1,11.6,16.8,27.6,14.1l-0.9-3.7c1.5-21.7,7.7-42.6,20.2-58.2c7.4-8.9,19.3-15.3,16.8,4.9
	c-5.5,36.4-17.8,69.5-11.9,104.4c2.4,13.8,9.5,27.3,24.5,25.1c13.5-1.8,21.4-15.3,27-26.3c11.6-23.5,20.1-46.9,27.7-70.2
	c1.5,6.6,4.2,12.8,8.2,18.5c13.5,19,39.2,20.5,54.8,2.4c5.1-5.9,9.3-12.4,12.8-19.3c1.4,6.6,4.3,12.9,9.2,18.1
	c8,8.9,20.2,10.4,32.5-4c8.3-9.2,14.4-30.9,19.9-49c-1.5,17.8-1.8,38.9,5.5,52.7c11.3,20.8,30.3,15.6,42-1.8
	c11.9-18.4,17.8-40.1,24.2-60.3l0,0c1.8-6.1,3.7-11.6,5.2-17.4c2.4,1.8,4.9,3.1,7.7,4.3c-4,16.2-7,40.7-3.1,59.4
	c6.1,27.9,30.3,42,47.5,14.1c8.8-14.5,14.3-29.4,19.2-44.4c1.2,18.8,3.8,37.3,8.4,55.2c8,30.9,30,30.6,45,5.5
	c13.8-23.6,21.7-50.5,29.7-76.6c0.6-2.8-3.7-4-4.6-1.5c-7,24.5-15,49.3-27.3,71.7c-20.5,35.2-23.9-4-24.8-20.2
	c-2.1-38.9-0.6-78.7,3.4-117.3c1.2-11.6,2.8-27.6,4.3-41c65.5,2.5,132.6-1.5,196.9-27c3.1-1.5,0.9-5.8-1.8-4.6
	c-63.4,25.4-129.9,29.1-194.5,27c0.3-2.5,0.6-4.6,0.9-6.7c1.8-14.7-27-21.4-28.2-7.7l-1.2,12.9c-17.2-0.9-34.3-2.1-51.1-3.7
	c-106.3-8-201.5-15-263.7,53.3c-2.1,2.8,1.8,5.5,3.7,3.4c60.3-66.8,154.7-59.4,259.7-51.8c16.8,1.2,33.7,2.8,51.1,3.7
	c-3.9,36.3-7.6,74.4-6.5,111.6c-5,16.4-10.8,33.4-18.3,47.7c-3.4,6.4-7.7,14.1-15.6,14.7c-4,0.3-7.7-2.8-8.6-10.4
	c-1.5-16.8,3.7-36.1,6.1-52.4c2.8-17.5-23.6-16.8-33.1-24.2c1.5-4.9,0.9-11.3-1.5-15.9c-4-7-12.6-7-12.6,2.5c0,6.4,4,11.9,8.6,15.9
	c-1.8,6.7-3.7,12.6-5.5,18.7l0,0c-6.4,20.8-12.2,41.3-23.6,59.1c-8.6,13.2-21.1,8.6-20.2-9.2c1.2-19,5.8-44.4,6.7-51.1
	c1.8-14.1-24.2-21.1-27.6-9.5c-1.2,2.8-2.5,5.8-3.7,9.5c-13.9-14.4-34.5-16.1-48.1,0.2c-0.2,0.1-0.3,0.3-0.4,0.5
	c-0.4,0.5-0.8,1-1.1,1.5c-6.9,9.2-11.8,22.5-11.7,35.6c-3.4,7.6-7.4,15-12.5,21.7c-11.6,15.3-28.5,16.2-36.1-1.8
	c-3.7-8.6-4-19.3-2.4-27.6c11.9-1.2,25.7-4,29.7-16.8c4.3-13.2-7-24.5-20.2-24.5c-11.6-0.3-24.2,8.6-29.4,19.6
	c-3.7,8-5.5,16.8-5.3,25.6c-9.3,28.5-19.2,54.7-30.8,79.8c-11.6,25.1-27,26.6-27,2.1c0-30.6,17.2-66.2,19.6-96.8
	c1.2-15.3-3.7-28.8-17.8-29.7c-12.3-0.9-23.9,6.1-30.6,15c-10.4,14.4-17.2,30.9-19.9,47.2c-5.5-24.8-8.3-49.3-8.3-75.6
	c29.4-25.7,70.7-83,68-127.4c-1.8-24.5-20.2-36.4-42.9-27.6c-13.5,5.5-24.2,16.8-31.5,29.4c-21.4,37.1-23.6,88.5-21.1,141.8
	c-18.4,14.1-39.5,23.9-64.9,12.6c-2.8-1.5-4.9,3.1-1.8,4.3c26.6,11.9,48.1,2.8,67.4-11.3C245,426.1,248.1,445.4,256.1,462.3z
	 M495.9,414.5c7.4-11,17.2-10.4,25.7-3.1c-5.8,18.4-12.3,43.5-20.8,53.6c-6.1,7-14.1,8-15.3-2.8
	C483.9,447.3,487.6,427.7,495.9,414.5z M420.5,410.5c7.7-9.8,18.4-1.8,15.3,8.3c-3.7,11.3-15.9,11.9-24.2,13.2
	C413.8,422.8,417.2,414.8,420.5,410.5z M300.5,246.1c13.5-17.2,31.5-12.9,33.4,9.5c3.4,41-36.8,96.2-62.8,120.7
	C271.7,333,272.6,281.3,300.5,246.1z M925.1,837.1c-12.5,41.6-25.1,78-41,112.2c-11.6,25.1-26.9,26.6-26.9,2.1
	c0-30.6,17.1-66,19.6-96.6c1.2-15.3-3.7-28.7-17.7-29.7c-12.2-0.9-23.9,6.1-30.6,15c-10.4,14.4-17.1,30.9-19.9,47.1
	c-5.5-24.8-8.3-49.2-8.3-75.5c21.5-18.8,49.4-54.5,61.7-89.7c21.4-4.2,42.7-10.2,63.7-18.5c3.1-1.5,0.9-5.8-1.8-4.6
	c-19.8,7.9-39.9,13.8-60.1,17.9c3.4-11.1,5.1-22,4.5-32.3c-1.8-24.5-20.2-36.4-42.8-27.5c-13.5,5.5-24.2,16.8-31.5,29.4
	c-6.9,12-11.8,25.5-15.3,39.7c-16.4,0.4-32.7,0.3-49-0.3c0.3-2.4,0.6-4.6,0.9-6.7c1.8-14.7-26.9-21.4-28.1-7.6l-1.2,12.8
	c-17.1-0.9-34.2-2.1-51.1-3.7c-106.1-8-201.2-15-263.3,53.2c-2.1,2.8,1.8,5.5,3.7,3.4c60.2-66.7,154.4-59.3,259.3-51.7
	c16.8,1.2,33.6,2.8,51.1,3.7c-3.9,36.3-7.6,74.3-6.5,111.5c-5.8,19.6-12.4,39.3-22.5,55.5c-8,12.8-21.1,8.6-19.9-9.2
	c1.2-19,4.3-40.1,5.2-47.1c1.8-14.1-23.5-22-26.6-6.7c-1.8,7.6-4,15-6.1,22.3c-3.4,11.9-7.6,23.5-13.5,34.6
	c-6.1,11-14.1,17.1-14.1,0.6c0-14.7,3.4-29.4,5.5-43.7c2.1-16.5-25.7-24.5-26.9-8.9v0.1c-6.6,20.8-21.5,42.4-44,43.3
	c2.8-9.5,4.3-20.5,4.3-32.4c0-19.6-7-30.9-15.6-35.8c-10.1-5.5-22.3-2.8-29.4,5.8c-3.1,3.4-5.2,8-6.1,13.5c-3.7,0.6-7,2.8-8.9,6.7
	c-2.4,5.1-4.1,11.8-5,19.2c-6.4,19.3-14.3,37.9-25.3,54.5c-6.7,9.8-20.5,26.3-22.6,1.2c-2.1-24.5,19.9-63.9,10.1-85.3
	c-8.9-18.7-24.8-10.4-33.9,1.5c-8.9,11.6-17.4,30.9-19.9,38.2c-1.5-7.6,1.8-16.5,3.1-23.9c1.8-8.9,5.2-22.6,1.8-32.1
	c-3.4-9.5-14.4-13.1-22-8.9c-4.6,2.4-8.6,7.3-11.9,12.8c-8.9,14.4-15.6,32.1-19,51.4c-0.6-7,0.3-14.4,1.5-21.7s-7.3-12.8-15-13.8
	c-2.1-0.3-7-0.3-9.8,2.8c-23.2,27.5-33.3,69.7-77.4,65.1c-3.1-0.6-3.7,4.3-0.6,4.6c43.4,5.8,57.5-33.3,76.1-59.6
	c-0.6,10.4,0,20.8,4.3,30.3c4.6,9.8,12.8,15,22.9,15c0.9-22.9,8.9-51.4,20.8-70.6c4.3-7,5.8-8.3,5.2,5.8
	c-0.9,16.5-4.9,35.8,5.8,49.8c3.7,5.2,8.6,8.3,15.3,3.7c1.8-5.2,13.1-32.1,20.2-41.6c4.6-6.7,9.2-6.7,7.3,10.1
	c-1.2,11.9-6.7,33-7.3,50.5c-0.6,15,5.8,37.6,24.2,37.9c10.1,0.3,16.5-8.6,21.7-15.9c10.1-14.6,17.8-30.3,24-46.4
	c0.7,11.5,3.8,22.8,10,30.5c10.4,12.5,26.9,12.2,38.2,1.2c5.8-5.8,8.3-11.9,11.3-19.3c20.5-0.7,34.4-13.7,43.3-30.4
	c-0.8,6.6-1.4,13.2-1.1,19.7c0.6,12.8,7.6,32.1,22.9,32.7c7,0.3,13.1-4.6,18-12.5c7-10.7,11.3-23.5,15-35.8
	c-0.6,14.4,0,29.4,6.1,40.7c11.3,20.8,30.6,16.2,41.6-1.8c9-14.3,14.5-29.2,19.2-44c1.2,18.7,3.8,37,8.3,54.7c8,30.9,30,30.6,45,5.5
	c11.8-20.3,19.4-43,26.3-65.5c1.9,14.4,5.1,28.6,11,41.6c4.9,10.1,11.6,16.8,27.5,14.1c-0.3-1.2-0.6-2.4-0.9-3.7
	c1.5-21.7,7.6-42.5,20.2-58.1c7.3-8.9,19.3-15.3,16.8,4.9c-5.5,36.4-17.7,69.4-11.9,104.3c2.4,13.8,9.5,27.2,24.5,25.1
	c13.5-1.8,21.4-15.3,26.9-26.3c18.7-37.9,29.4-75.5,41-112.8C930.3,835.6,926.3,834.3,925.1,837.1z M516.6,901.3
	c-11,13.8-22.3,4.6-22.9-11.6c-0.3-7,0.6-15.9,2.4-23.2c7,9.2,17.1,17.1,28.7,19.3C522.7,891.5,520.6,896.4,516.6,901.3z
	 M526.7,880.8c-12.2-1.8-22.3-10.4-29-20.5c1.2-4.6,3.1-9.2,4.9-13.5c1.2-8.3-5.5-13.8-12.8-14.7c0.9-4,2.4-7.3,4.9-10.1
	c5.5-6.7,15.3-9.2,23.2-4.6c7.3,4,13.5,14.1,13.5,31.5C531.3,860.9,529.5,872,526.7,880.8z M800.7,805.3c0.3-24.1,0.8-50.9,6-75.9
	c16.7-1.2,33.4-3.3,50.1-6.3C844.6,755.2,819.1,787.9,800.7,805.3z M830,675.3c13.5-17.1,31.5-12.8,33.3,9.5
	c0.8,10.4-1.1,21.6-4.8,33c-16.9,3.2-33.8,5.4-50.8,6.7C811.9,706.5,818.8,689.6,830,675.3z M746.2,908.7
	c-20.5,35.2-23.9-4-24.8-20.2c-2.1-38.8-0.6-78.6,3.4-117.1c1.2-11.6,2.8-27.5,4.3-41c16.1,0.6,32.3,0.8,48.5,0.4
	c-6.1,28.4-6.6,59.1-5.4,86.1c0.2,6.7,0.6,13.5,1.2,20.4C766.4,861.7,758.4,886.4,746.2,908.7z"/>
<path d="M846,545.8c-15.9-9.2-26.8,10.8-39.7,14.6c-1.7-13.9-8.4-36.2-27.3-40.7c-7.8-1.9-13.5,3.6-16.4,11.1
	c-5.9,16.7,0.3,37.1,4.7,52.6c2.2,8.1,5.4,16.6,7,24.5c1.4,8.5-1.9,20.5,7.6,23.6c10.8-15.4,31.3-20.2,45.6-28.1
	c9-4.8,16-10.1,22.7-20.6C858.5,569.7,856.9,552.3,846,545.8z M843.7,571.8c-5.8,10-13.5,15.2-23.4,20.7
	c-12.8,6.7-26.6,10.2-38.1,19.3c-1-20.4-16-42.9-11.9-65.9c1.8-8.6,6.6-15.7,14.3-12.5c8.4,3.2,17.2,21.2,14.8,31.7
	c-1.6,6.9-5.7,11.8,1.7,16c14.8-7.4,25.6-23.1,44.1-23.7C848.4,561,846.5,566.7,843.7,571.8z M775,272c6.7-0.7,6.4-9,8.6-14.4
	c2.2-4.9,5.6-10,8.3-15c5.2-9.5,12.3-21.9,11-33.7c-0.7-5.3-3.6-9.7-9-9.6c-13,0.3-20.7,13.9-24,22.7c-7.8-4.3-11.9-18.9-23.7-15.2
	c-8.1,2.7-11.7,13.8-8.4,23.5c2.7,7.8,6.5,12.3,11.7,16.7C757.6,254.4,770.3,260.4,775,272z M743.8,224.2c-1-3.7-1.4-7.7,1.1-9.5
	c12,3,16.7,14.8,25.2,21.7c5.5-1.7,3.5-5.5,3.5-10.2c0-7.2,8.5-17.7,14.5-18.6c5.5-1,7.6,4.3,7.5,10.2c-0.8,15.6-14,28.2-17.7,41.4
	c-6.1-7.6-14.6-11.9-21.9-18.1C750.3,236.1,746.1,231.6,743.8,224.2z M193.5,487.2c-11.3-0.3-11.4,13.6-17.2,19.4
	c-5-7-15-17.1-26.5-14.1c-4.8,1.2-6.3,5.9-5.6,10.7c1.6,10.7,10.9,19.9,17.8,27c3.6,3.7,7.7,7.4,10.9,11.2c3.2,4.2,4.9,11.6,11,10.6
	c1.3-11.4,11.1-20,16.5-28.4c3.5-5.2,5.7-10.1,6.3-17.7C207.2,496.5,201.2,487.5,193.5,487.2z M193.1,519.9
	c-5,7.3-11.4,13.2-15,21.5c-6.4-10.7-21.1-18.6-25.5-32.1c-1.5-5.1-1-10.4,4.1-10.9c5.5-0.7,15.5,6.5,17.2,12.8
	c1.1,4.2,0.4,8,5.6,8.2c5.8-8.3,7.1-19.9,17-25.6c2.7,1,3.3,4.6,3.3,8.2C199.6,509,196.9,514,193.1,519.9z"/>
</svg>
