<?xml version="1.0" encoding="utf-8"?>
<!-- Generator: Adobe Illustrator 22.1.0, SVG Export Plug-In . SVG Version: 6.00 Build 0)  -->
<svg version="1.1" id="Layer_1" xmlns="http://www.w3.org/2000/svg" xmlns:xlink="http://www.w3.org/1999/xlink" x="0px" y="0px"
	 viewBox="0 0 864 864" style="enable-background:new 0 0 864 864;" xml:space="preserve">
<style type="text/css">
	.st0{fill:#E32390;}
</style>
<path class="st0" d="M605,187c-2.9-0.6-7.6,9.7-8.8,11.8c-2.3,4.6-4.8,9-7.1,13.2c-11.8,22.9-18.3,48.8-31.1,71.1
	c-2.3,4.2-5.3,9-10.1,10.3c-3.4-9-3.2-20.4-2.5-31.7c1.7-26.7,8.6-48.6,12.2-74c0.6-3.8,1.9-12.6,0-15.6c-1.5-2.5-9.5-4.6-13.2-3.4
	c-0.6,2.1,0.6,4,0.6,6.1c-12.8,20.6-23.8,44.1-38.1,64.1c-1.9,2.7-3.6,5.9-6.9,7.1c-1-18.6,7.1-36.5,3.5-53c1.7-0.8,3.1-1.7,4-2.9
	c-1.6,0.1-3.1,0.3-4.6,0.4c-0.1-0.2-0.1-0.4-0.2-0.7c-2.3-1.1-5.7-2.3-9-1.9c-0.2,1.2-0.5,2.4-0.7,3.6c-1.2,0.1-2.4,0.2-3.7,0.2
	c-5.7,0.2-14.9,0.8-19.1-1.5c-1.3-0.8-1.7-2.7-3.2-3.4c-0.8-0.4-2.7-0.8-4.2-1.3c-1.5-0.6-2.9-1.3-4.2-1.3c-0.8,0-2.1,0.4-2.9,0.4
	c-3.2-0.4-5.3-2.3-8.4-1.7c-7.8,1.3-9.2,10.1-11.4,17.2c-3.6,11.6-5.9,21.2-8.4,34.5c-0.9,5-2,11.3-2.7,18c-6.7-4.5-15.3-7-24.6-8.3
	c5.3-30.7,12.8-58.9,20-87.9c2.5-9.7,5.5-19.8,4.8-30.5c-1.9-1.3-4.4-2.3-7.4-3.4c-2.1-0.8-6.5-2.1-8.8-0.6
	c-2.3,1.7-2.3,12.2-3.4,15.3c-1.3,4.2-4.4,8.8-7.1,13.5c-7.6,13.9-14.9,26.1-23.3,38.7c-11.8,17.9-22.5,33-39.3,43.5
	c-3.6-10.1-3.4-23.3-3.2-35.9c0.4-12.6,1.1-24.8,4-35.5c2.9-9.9,5.7-20.2,8.2-31.3c2.1-8.8,6.7-25.4,2.1-34.1
	c-1.3-2.5-6.9-6.9-10.9-8.2c-1.9-0.6-4.4-0.6-5.9-0.4c-10.3,2.1-18.3,11.1-24.4,18.1c-13.2,15.6-24.8,32.6-33.2,52.1
	c-2.9,7.1-6.1,15.3-7.4,24.6c-0.2,2.9-1.3,6.5,0.6,9.2c5.9,0.4,8.2-5.9,10.3-10.1c2.5-4.6,5.3-9.2,6.9-13.9
	c9.2-25,23.8-46.7,40.8-63.5c3.6-3.4,7.6-7.4,12.6-8c-1.3,11.8-4.6,22.7-7.8,33.8c-5.9,22.1-11.8,44.4-13.7,70.8
	c-1.3,18.9,0.4,43.3,19.1,43.5c10.7,0,17-7.4,22.3-13.2c17-18.9,32-39.9,44.6-61.8c-4,26.5-9.7,51.5-15.8,76.1
	c-36.2,5.5-62.6,20.6-84.7,40.8c-10.1,9.5-20,22.3-26.1,36.6c-3.2,7.8-5,17.2-3.8,26.3c1.5,8.8,4.4,15.8,10.1,21.4
	c11.1,11.1,32.6,11.4,47.9,3.8c42.3-20.8,57.8-68.5,69.4-119.2c10.7-1.4,19.9,1,26.4,5.7c-0.3,8.9,0.4,17.7,3.7,23.7
	c4.4,8.2,18.1,10.5,26.7,4.4c5-3.8,9.7-10.3,13.5-16.6c3.8-6.5,6.7-14.1,8.4-21.9c3.8-16.6,1.9-37.2-3.4-53c6,1.7,12.9,0.4,19-1.1
	c-1.2,6.3-2.4,12.9-3.4,19.6c-1.3,9.7-3.2,22.1,0.2,30.1c1.1,2.3,3.8,5,5.9,6.5c3.8,2.5,11.4,5.7,17,2.9c4-1.9,7.1-8.2,9.5-12.2
	c8.4-13.5,15.1-28,21-43.5c0-0.8,0.6,0,0,0c-3.6,15.3-7.8,33.2-9.9,53.2c-1.7,19.3-1.1,41.8,9.7,50.9c5.7,4.8,14.1,1.9,18.5-2.5
	c10.3-9.7,13.9-27.1,19.3-41.8c7.4-19.3,15.1-38.5,23.1-58c0.8-1.9,2.1-4.8,2.7-7.4C606.3,192.5,607.8,187.6,605,187z M382,257.6
	c-0.8,5-3.2,11.8-4.6,16.2c-5.3,17.9-11.8,38.3-19.6,51.9c-5.3,9.5-13,18.3-21.4,26.3c-7.4,7.1-18.1,16.4-30.9,16.8
	c-15.6,0.4-21.7-12.4-22.1-27.7c0-8,1.5-15.8,4.2-21.9c5-10.7,13.9-20.8,22.9-29.2c13.7-12.6,29-23.3,48.8-29.4
	c6.5-2.1,13.9-4.4,21.4-4.6c0.2,0,0.4,0,0.4,0C382.2,256.1,382.6,254.9,382,257.6z M456,266.2c-3.2,6.7-6.7,13.9-12.8,16.4
	c-2.1-3.6-2.3-7.6-2.3-12c-0.2-20.4,6.9-42.9,13-59.9c2.1-6.3,4.8-13.9,8-17.7c0.2,0,0.2,0,0.4,0c4.2,6.1,5,15.6,5,24.8
	C467.1,237.2,462.3,252.6,456,266.2z"/>
<path d="M277.3,398.1h39.8v11.3h-0.9c0-7.3-10.8-7-10.7-7h-11v35.5h1.3c2.4,0,9.9-0.9,9.9-7h0.9v18.3h-0.9c0-6-7.4-6.9-9.9-7h-1.3
	v44.1h11.8c2.4,0,9.9-0.9,9.9-7h0.9v11.3h-39.8v-0.9c7.3,0,7-10.8,7-10.7v-69.3c0,0.1,0-3.1-1.1-6l-0.3-0.9l-0.4-0.8
	c-0.4-0.6-0.8-1.1-1.4-1.6l-0.6-0.5c-0.9-0.5-1.9-0.9-3.1-0.9v-0.9H277.3z M353.9,399c6.2,0,6.9,7.5,7,9.9v65.7L340,399.1v-1h-17.2
	v0.9c6.2,0,6.9,7.5,7,9.9v71c-0.1,2.5-1,9.8-7,9.8v0.9h18.3v-0.9c-6.2,0-7-7.5-7-9.8v-64.1l20.7,72.9v1.9h17.3v-0.9
	c-6.2,0-7-7.5-7-9.8v-71c0.1-2.5,1-9.9,7-9.9v-0.9h-18.3v0.9H353.9z M376.8,409.4h0.9c0-6.2,7.5-6.9,9.8-7h2V479
	c0-0.1,0.3,10.7-7,10.7v0.9h24.4v-0.9c-6.2,0-7-7.5-7-9.8v8.2l-0.1-85.7c-0.1,0,10.7-0.3,10.7,7h0.9v-11.3H377v11.3H376.8z M419,399
	c6.2,0,6.9,7.5,7,9.9V479c0-0.1,0.3,10.7-7,10.7v0.9h24.2v-0.9c-6.2,0-7-7.5-7-9.8v-71c0.1-2.5,1-9.9,7-9.9v-0.9H419V399z
	 M497,489.7v0.9h-18l-10.8-37.1h-2.7v26.4c0,2.3,0.9,9.8,7,9.8v0.9h-24.2v-0.9c6,0,6.9-7.3,7-9.8v-71c-0.1-2.4-0.9-9.9-7-9.9v-0.9
	h22.6c6.7,0,17.8,3.9,17.8,29.9c0,16.7-5.4,20.9-10.7,23.6l8.7,28.3C487.7,482.1,491.1,489.7,497,489.7z M478.5,428
	c0-5.9-0.8-25.6-7.7-25.6h-5.3v46.9h5.1C477.8,449.2,478.5,433.4,478.5,428z M499.8,399c1.3,0,2.3,0.4,3.1,0.9l0.6,0.5
	c0.6,0.5,1,1,1.4,1.6l0.5,0.8l0.3,0.9c1.1,2.9,1.1,6.2,1.1,6V479c0-0.1,0.3,10.7-7,10.7v0.9h39.8v-11.3h-0.9c0,6.2-7.5,7-9.9,7H517
	v-44.1h1.3c2.5,0.1,9.9,1,9.9,7h0.9v-18.3h-0.9c0,6.2-7.5,7-9.9,7H517v-35.5h11.1c-0.1,0,10.7-0.3,10.7,7h0.9v-11.3h-39.8L499.8,399
	L499.8,399z M620.5,398.1v0.9c-3,0-5,3.4-6.3,6.4l-1.3,3.9v0.3l-11.1,34.7l0.1,0.1v35.5c0,2.3,0.9,9.8,7,9.8v0.9H585h-0.5h-39.3
	v-0.9c6,0,6.9-7.3,7-9.8v-71c-0.1-2.4-0.9-9.9-7-9.9v-0.9h24.2v0.9c-6,0-6.9,7.4-7,9.9v77.4h11.8c2.4,0,9.9-0.9,9.9-7h0.9v10.4
	c5.6-0.4,6.4-7.3,6.5-9.8v-35.5l-11.1-34.8v0.1c0,0.1-2.8-10.7-8.7-10.7v-0.9h22.2v0.9c-5.3,0-4.5,5.8-3.9,8.9l6.5,20.5l2.5,7.9
	l8.4-26.6l0.3-1.1v0.1l0.4-1.1l-0.4,1c0.6-2.5,1.8-9.5-3.9-9.5v-0.9L620.5,398.1L620.5,398.1z M590.8,409.6l-0.5-1.5
	C590.6,409,590.8,409.6,590.8,409.6z"/>
<path d="M387.6,378.8l0.1-0.6c0,0.3,0,0.6-0.1,1.1V378.8z M425.3,388.1v0.9h-22.2v-0.9c5.3,0,5.5-6,5.4-9c0,0.1,0,0.1,0.1,0.3
	l-0.1-0.8v0.1c-0.1-0.3-0.1-0.6-0.1-0.9c0,0.1,0,0.3,0.1,0.5l-0.1-0.5l-1.3-8.2l-18-0.1l-1.3,8l-0.1,0.6v-0.4c0,0.3-0.1,0.6-0.1,1
	c-0.3,2.6-0.1,9.3,5.5,9.3v0.9h-16.3V388c4.3,0,5.9-5.8,6.4-8.8l12.7-82.7v-0.1h10.3v0.1l12.3,80.8l0.3,2
	C419.3,382.5,420.8,388.1,425.3,388.1z M406.5,365.4l-8.2-57.4l-8.5,57.4H406.5z M478.3,388.1v0.9h-18l-10.7-37h-2.8v26.4
	c0,2.3,0.9,9.8,7,9.8v0.9h-24.2v-0.9c6,0,6.9-7.3,7-9.8v-71c-0.1-2.4-0.9-9.9-7-9.9v-0.9h22.6c6.7,0,17.8,3.9,17.8,29.9
	c0,16.7-5.4,20.9-10.7,23.6l8.7,28.3C469,380.6,472.4,388.1,478.3,388.1z M459.9,326.5c0-5.9-0.8-25.6-7.7-25.6h-5.4v46.9h5.2
	C459.1,347.7,459.9,331.9,459.9,326.5z M509.4,300.8c-0.1,0,10.7-0.3,10.7,7h0.9v-11.3h-39.8v0.9c1.3,0,2.3,0.4,3.1,0.9l0.6,0.5
	c0.6,0.5,1,1,1.4,1.6l0.5,0.8l0.3,0.9c1.1,2.9,1.1,6.2,1.1,6v69.3c0-0.1,0.3,10.7-7,10.7v0.9H521v-11.3h-0.9c0,6.2-7.5,7-9.9,7
	h-11.8v-44.1h1.3c2.5,0.1,9.9,1,9.9,7h0.9v-18.3h-0.9c0,6.2-7.5,7-9.9,7h-1.3v-35.5H509.4z"/>
<path class="st0" d="M577.3,621.3c-6,2.8-8.3,9.6-11.1,15.3c-7.2,15.3-14.5,31.3-21.1,46.4c-1.3,3-2.1,6.8-5.3,7.9
	c-7.5-23.2-1.5-54.3,4.3-75.2c0.9-3,2.8-7,2.3-10c-0.6-3.4-6.8-6.2-10-5.5c-2.3,0.6-2.6,4.7-3.4,7.5c-5.3,18.1-15.1,34.1-25.1,46
	c-4.5,4.7-8.1,10.2-15.5,11.7c-4-13.6-1.9-30.9,1.3-44.1c0.6-2.6,4-10.9,3.6-12.6c-0.2-0.5-1.3-1.3-2.8-2c0.1-0.1,0.2-0.2,0.3-0.3
	c-0.3,0-0.6,0-0.9,0.1c-3.1-1.4-7.3-2.7-8.8-2.4c-1.1,0.3-2.1,1.7-2.9,3.7c-1.9,0.2-3.9,0.3-6,0.4c-5.7,0.2-15.1,0.9-19.4-1.5
	c-1.3-0.9-1.7-2.8-3.2-3.4c-0.9-0.4-2.8-0.9-4.3-1.3c-1.5-0.6-3-1.3-4.3-1.3c-0.9,0-2.1,0.4-3,0.4c-3.2-0.4-5.3-2.3-8.5-1.7
	c-7.9,1.3-9.4,10.2-11.5,17.5c-0.8,2.5-1.5,5-2.2,7.4c-8.9,12.1-19.1,23.1-28.9,33.1c1.1-15.1,3.8-41.3-6.2-50.5
	c-2.3-1.9-6.4-3.4-10-3c-6.2,1.1-10.9,9.4-13.4,14.7c-6,12.8-12.6,23.2-20.4,33.6c-3.8,5.3-7.7,11.3-13.2,14.1
	c-4.9-12.6-1.7-32.2,0-46.4c0.6-5.1,1.9-11.1,1.5-15.8c0-1.1-0.9-1.9-1.3-3.6c-0.4-1.7,0-3.2-0.6-4.3c-2.1-3.2-10.6-2.1-15.1-1.5
	c0,12.4-1.9,24.3-1.9,37.9c0.2,11.5,0.2,25.8,3.8,33.6c2.8,6.2,11.9,15.5,21.7,10.6c4.5-2.1,9.6-9.8,12.1-13.6
	c7.5-10.9,11.7-22.6,17.3-34.5c2.8-5.7,6-11.5,10.9-15.1c6,15.3,3.6,39.8,1.5,57.3c-16.6,17.3-34.7,32.6-52.6,49.4
	c-8.5,8.1-16.8,17-23.2,27.9c-2.8,5.1-5.8,11.1-7.2,18.3c-1.3,7.5-1.5,16.6,2.6,21.3c4.7,5.3,13.8,6,21.7,4.9
	c23.6-3,37.3-19,46-36.4c11.1-21.9,17.5-45.8,22.4-73.7c0.6-3.8,0.9-8.5,2.1-11.7c1.1-2.6,4.7-4.9,6.8-7.5
	c6.7-7.3,13.5-14.5,19.6-22.2c-0.7,3.3-1.4,6.8-2.1,10.5c-2.6,13.8-6.4,37.9,0.4,50.5c4.5,8.3,18.3,10.6,27,4.5
	c5.1-3.8,9.8-10.4,13.6-16.8c3.8-6.6,6.8-14.3,8.5-22.1c3.8-16.8,1.9-37.7-3.4-53.7c6.6,1.9,14.4,0.1,20.9-1.6
	c-0.6,2.4-1,4.9-1.2,6.7c-3,18.1-3.6,42,6,52.6c2.6,3,6.2,4.5,11.7,3.8c10.6-0.9,17-8.3,23.2-14.5c-0.2,7.5,0.4,15.8,1.7,23.2
	c1.1,7.7,1.9,15.1,5.1,20c2.8,4.5,9.4,6.8,14.9,3.2c5.3-3.4,9.4-11.5,11.9-18.5c2.8-7.7,4.9-16.2,7.5-23.2
	c4-11.5,8.1-22.4,12.6-33.2C575.4,629,577.9,625.4,577.3,621.3z M327.5,779.6c-4.7,2.8-15.1,7.2-20.7,2.8c-4.3-3.2-3-11.5-1.3-17
	c1.9-5.5,4.7-10.2,7-14.5c16-27,41.5-44.7,62.4-66.7c0-0.2,0.4,0,0.4-0.4c0.2,0,0.2,0.2,0.2,0.2c0.2,0,0.2,0.4,0.2,0.4
	C369.3,724.4,357.8,761.9,327.5,779.6z M442.6,683.5c-3.2,6.8-6.8,14.1-13,16.6c-2.1-3.6-2.3-7.7-2.3-12.1
	c-0.2-20.7,7-43.4,13.2-60.7c2.1-6.4,4.9-14.1,8.1-17.9c0.2,0,0.2,0,0.4,0c4.3,6.2,5.1,15.8,5.1,25.1
	C453.8,654.1,448.9,669.7,442.6,683.5z"/>
<path d="M472.9,501.6h34.4v11.3h-0.9c0-7.3-10.8-7-10.7-7l0.1,85.7v-8.2c0,2.3,0.9,9.8,7,9.8v0.9h-24.4v-0.9c7.3,0,7-10.8,7-10.7
	v-76.6h-2c-2.3,0.1-9.8,0.9-9.8,7h-0.9v-11.3H472.9z M545,518.8v57.9c0,9.5-7.8,17.3-17.3,17.3s-17.3-7.8-17.3-17.3v-57.9
	c0-9.5,7.8-17.3,17.3-17.3S545,509.3,545,518.8z M534.9,512.9c0-3.9-3.3-7.2-7.2-7.2s-7.2,3.3-7.2,7.2v69.8c0,3.9,3.3,7,7.2,7
	s7.2-3.1,7.2-7V512.9z M383.3,502.5c6.2,0,6.9,7.5,7,9.9v62.8c0,3.9-1.6,14.7-13.1,14.7c-3.9,0-7.2-3.3-7.2-7.2v-70.3
	c0.1-2.5,1-9.9,7-9.9v-0.9h-24.2v0.9c7.3,0,7,10.8,7,10.7v63.7c0,9.5,7.8,17.3,17.3,17.3s17.3-7.8,17.3-17.3v-64.4
	c0.1-2.5,1-9.9,7-9.9v-0.9h-18.3v0.8H383.3z M446.5,531.5c0,25.6-12.7,25.5-18.1,25.5h-5.1v26.4c0,2.3,0.9,9.8,7,9.8v0.9h-24.2v-0.9
	c6,0,6.9-7.3,7-9.8v-71c-0.1-2.4-0.9-9.9-7-9.9v-0.9h22.6C435.3,501.6,446.5,505.5,446.5,531.5z M436.4,531.5
	c0-5.9-0.8-25.8-7.7-25.8h-5.4v47h5.1C435.6,552.8,436.4,536.9,436.4,531.5z"/>
</svg>
